<svg xmlns="http://www.w3.org/2000/svg" viewBox="0 0 1200 800">
  <rect width="1200" height="800" fill="#1C2E47"/>
  <rect x="80" y="60" width="1040" height="700" rx="28" fill="#0F1B2D"/>
  <circle cx="122" cy="102" r="9" fill="#EAF7F2" opacity=".25"/><circle cx="152" cy="102" r="9" fill="#EAF7F2" opacity=".25"/><circle cx="182" cy="102" r="9" fill="#EAF7F2" opacity=".25"/>
  <rect x="240" y="88" width="420" height="28" rx="14" fill="#EAF7F2" opacity=".08"/>
  <text x="140" y="165" font-family="Arial, sans-serif" font-weight="700" font-size="26" fill="#EAF7F2">Trénink s Kubou</text>
  <rect x="140" y="240" width="280" height="260" rx="22" fill="#1C2E47"/>
       <rect x="170" y="530" width="200" height="16" rx="8" fill="#EAF7F2" opacity=".5"/>
       <rect x="170" y="560" width="140" height="16" rx="8" fill="#EAF7F2" opacity=".3"/><rect x="460" y="240" width="280" height="260" rx="22" fill="#8EE3C8"/>
       <rect x="490" y="530" width="200" height="16" rx="8" fill="#EAF7F2" opacity=".5"/>
       <rect x="490" y="560" width="140" height="16" rx="8" fill="#EAF7F2" opacity=".3"/><rect x="780" y="240" width="280" height="260" rx="22" fill="#1C2E47"/>
       <rect x="810" y="530" width="200" height="16" rx="8" fill="#EAF7F2" opacity=".5"/>
       <rect x="810" y="560" width="140" height="16" rx="8" fill="#EAF7F2" opacity=".3"/>
       <rect x="140" y="180" width="380" height="30" rx="10" fill="#EAF7F2"/>
</svg>